# xmcd
#
# Track frame offsets:
#	150
#	24614
#	40146
#	59663
#	73779
#	94472
#	115810
#	132226
#	145084
#	163277
#	183310
#	200914
#	221518
#	245688
#	264339
#	285342
#	302605
#
# Disc length: 4308
#
# Revision: 3
# Processed by: cddbd v1.5.1PL0 Copyright (c) Steve Scherf et al.
# Submitted via: audiograbber 1.83.01
# Normalized: r2:DSETVAR1
#
DISCID=0910d211
DTITLE=Various Artist - 100% Blues - CD1
DYEAR=1900
DGENRE=Blues
TTITLE0=J. J. Cale - Cloudy Day
TTITLE1=B. B. King - Blues Boys Tune
TTITLE2=Little Milton - Stormy Monday
TTITLE3=Taj Mahal and Eric Clapton - Here In The Dark
TTITLE4=Santana and John Lee Hooker - Chill Out
TTITLE5=Lucky Peterson - Who's Been Talkin'
TTITLE6=Stevie Ray Vaughan - Pride and Joy
TTITLE7=Booker T. &The MGs - Green Onions
TTITLE8=The Doors - Roadhouse Blues
TTITLE9=Buddy Guy - Damn Right I've Got The Blues
TTITLE10=Muddy Waters - Mannish Boy
TTITLE11=Joe Cocker - Now That The Magic Has Gone
TTITLE12=The Blues Brothers - Shot Gun Blues
TTITLE13=Gary Moore - I Still Got The Blues
TTITLE14=The Robert Cray Band - Never Mattered Much
TTITLE15=Fleetwood Mac - Need Your Love So Bad
TTITLE16=ZZ Top - Blue Jeans Blues
EXTD=Compilation for the WOM (World Of Music)
EXTT0=
EXTT1=
EXTT2=
EXTT3=
EXTT4=
EXTT5=
EXTT6=
EXTT7=
EXTT8=
EXTT9=
EXTT10=
EXTT11=
EXTT12=
EXTT13=
EXTT14=
EXTT15=
EXTT16=
PLAYORDER=
